# xmcd
#
# Track frame offsets: 
#        150
#        23970
#        38704
#        58981
#        76659
#        94472
#        129177
#        155297
#        169663
#        183720
#        203976
#
# Disc length: 3055 seconds
#
# Revision: 1
# Processed by: cddbd v1.5.2PL0 Copyright (c) Steve Scherf et al.
# Submitted via: ExactAudioCopy v0.99pb4
#
DISCID=8d0bed0b
DTITLE=Tea and Sympathy - Sweet Romance
DYEAR=1996
DGENRE=Alternative
TTITLE0=Geraldine
TTITLE1=Wenzel
TTITLE2=Life Goes On
TTITLE3=The Queen
TTITLE4=Dead And Gone
TTITLE5=Sweet Romance
TTITLE6=Northern Girl
TTITLE7=Delta County Blue
TTITLE8=Tequila
TTITLE9=Cracked
TTITLE10=Israel
EXTD=Another Great band from Minneaplis, Mn\nhttp://bitstream.net/reco
EXTD=rds
EXTT0=
EXTT1=
EXTT2=
EXTT3=
EXTT4=
EXTT5=
EXTT6=
EXTT7=
EXTT8=
EXTT9=
EXTT10=
PLAYORDER=
